<?xml version="1.0" encoding="utf-8"?>
<svg data-name="Layer 1" width="1071.08" height="838.44" viewBox="544.011 337.326 459.798 466.992" xmlns="http://www.w3.org/2000/svg">
  <title>teddy bear</title>
  <circle cx="717.123" cy="401.427" r="42.431" style="fill: rgb(172, 88, 252);"/>
  <circle cx="842.693" cy="401.427" r="42.431" style="fill: rgb(172, 88, 252);"/>
  <ellipse cx="832.371" cy="407.095" rx="32.118" ry="36.763" opacity="0.1" style=""/>
  <ellipse cx="727.445" cy="407.095" rx="32.118" ry="36.763" opacity="0.1" style=""/>
  <path d="M 931.019 574.349 C 929.799 587.554 919.211 600.445 905.946 600.524 C 900.042 600.524 894.463 598.211 889.218 595.525 C 884.672 593.193 880.184 590.496 876.888 586.59 C 876.406 586.019 875.963 585.439 875.54 584.838 C 870.285 577.379 869.183 567.48 864.607 559.451 C 856.391 545.015 838.836 539.17 822.678 535.322 C 805.64 531.259 788.399 528.099 771.027 525.856 C 759.219 524.321 747.224 523.219 735.396 524.675 C 710.225 527.775 687.494 542.22 662.431 545.527 C 661.584 545.635 660.738 545.733 659.882 545.822 C 652.01 546.609 644.03 546.215 636.138 546.944 C 623.001 548.154 610.071 552.484 596.905 551.588 C 583.739 550.693 569.52 542.112 568.585 528.956 C 567.925 519.686 574.223 511.017 582.194 506.245 C 590.164 501.472 599.581 499.848 608.762 498.52 C 633.136 494.987 658.16 492.744 680.596 482.668 C 688.625 479.066 696.242 474.49 704.537 471.558 C 708.227 470.231 712.062 469.35 715.961 468.931 C 720.841 468.371 725.784 469.002 730.367 470.771 L 718.559 475.258 L 833.857 467.12 L 838.403 466.805 C 843.864 466.421 849.424 466.038 854.767 467.248 C 863.958 469.334 871.496 475.927 877.311 483.366 C 883.127 490.805 887.466 499.258 892.918 506.983 C 900.583 517.807 910.295 527.017 918.158 537.684 C 926.02 548.351 932.229 561.153 931.019 574.349 Z" style="fill: rgb(172, 88, 252);"/>
  <path d="M 877.282 557.364 C 877.336 566.55 876.767 575.729 875.579 584.838 C 870.325 577.379 869.223 567.48 864.647 559.451 C 856.43 545.015 838.875 539.17 822.718 535.322 C 805.679 531.259 788.438 528.099 771.067 525.856 C 759.258 524.321 747.263 523.219 735.435 524.675 C 710.264 527.775 687.533 542.22 662.47 545.527 C 667.922 506.599 687.612 481.664 716.05 468.921 C 731.489 462.033 749.507 458.687 769.276 458.687 C 793.542 458.687 815.928 459.671 833.965 467.11 C 860.258 477.934 877.282 502.417 877.282 557.364 Z" opacity="0.1" style=""/>
  <path d="M 871.751 561.291 C 871.751 582.083 869.262 598.339 864.716 611.033 C 853.557 642.157 830.088 651.909 800.882 654.841 C 791.042 655.825 780.602 656.042 769.738 656.042 C 756.045 656.143 742.411 654.247 729.265 650.413 C 704.911 643.082 684.925 628.411 674.761 605.522 C 669.28 593.202 666.652 578.511 667.715 561.291 C 671.789 495.598 713.393 466.51 769.738 466.51 C 826.083 466.51 871.751 472.345 871.751 561.291 Z" fill="#2f2e41" style=""/>
  <circle cx="779.913" cy="446.19" r="79.637" opacity="0.1" style=""/>
  <circle cx="779.913" cy="441.535" r="79.637" fill="#2f2e41" style=""/>
  <circle cx="769.738" cy="415.675" r="4.074" fill="#fbbebe" style=""/>
  <circle cx="789.497" cy="415.675" r="4.074" fill="#fbbebe" style=""/>
  <ellipse cx="779.913" cy="451.13" rx="41.565" ry="26.785" opacity="0.1" style=""/>
  <ellipse cx="779.913" cy="451.13" rx="39.243" ry="25.289" style="fill: rgb(172, 88, 252);"/>
  <path d="M 729.265 650.413 C 704.911 643.082 684.925 628.411 674.761 605.522 C 678.197 604.332 681.809 603.723 685.447 603.722 C 706.22 603.722 723.745 623.432 729.265 650.413 Z" opacity="0.1" style=""/>
  <path d="M 728.754 672.613 C 728.754 708.402 708.325 737.42 683.125 737.42 C 666.052 737.42 651.174 724.116 643.351 704.397 C 639.401 694.268 637.397 683.484 637.446 672.613 C 637.446 636.814 657.885 607.795 683.085 607.795 C 705.826 607.795 724.69 631.412 728.144 662.369 C 728.542 665.769 728.746 669.189 728.754 672.613 Z" fill="#2f2e41" style=""/>
  <path d="M 728.754 672.613 C 728.754 708.402 708.325 737.42 683.125 737.42 C 666.052 737.42 651.174 724.116 643.351 704.397 C 644.59 678.487 670.765 657.784 702.884 657.784 C 711.54 657.735 720.132 659.276 728.232 662.33 C 728.603 665.744 728.777 669.179 728.754 672.613 Z" opacity="0.1" style=""/>
  <ellipse cx="706.377" cy="708.648" rx="59.582" ry="48.542" style="fill: rgb(172, 88, 252);"/>
  <ellipse cx="710.874" cy="711.698" rx="55.076" ry="45.491" fill="#2f2e41" style=""/>
  <ellipse cx="730.495" cy="694.114" rx="9.594" ry="11.985" opacity="0.1" style=""/>
  <ellipse cx="730.495" cy="694.114" rx="8.138" ry="10.175" style="fill: rgb(172, 88, 252);"/>
  <ellipse cx="702.018" cy="704.288" rx="10.086" ry="10.755" opacity="0.1" style=""/>
  <ellipse cx="702.018" cy="704.288" rx="8.718" ry="9.299" style="fill: rgb(172, 88, 252);"/>
  <ellipse cx="686.323" cy="728.702" rx="10.755" ry="8.738" opacity="0.1" style=""/>
  <ellipse cx="686.323" cy="728.702" rx="9.299" ry="7.557" style="fill: rgb(172, 88, 252);"/>
  <ellipse cx="663.25" cy="756.69" rx="24.581" ry="12.851" transform="matrix(0.754595, -0.656191, 0.656191, 0.754595, -269.516088, 600.971533)" opacity="0.1" style=""/>
  <ellipse cx="663.25" cy="756.69" rx="22.977" ry="12.005" transform="matrix(0.754595, -0.656191, 0.656191, 0.754595, -269.516088, 600.971533)" style="fill: rgb(172, 88, 252);"/>
  <path d="M 864.716 611.033 C 853.557 642.157 830.088 651.909 800.882 654.841 C 805.606 626.206 823.702 604.883 845.301 604.883 C 852.242 604.941 859.006 607.083 864.716 611.033 Z" opacity="0.1" style=""/>
  <path d="M 894.423 672.613 C 894.507 684.453 892.131 696.18 887.447 707.054 C 879.378 725.297 865.08 737.42 848.794 737.42 C 823.594 737.42 803.165 708.402 803.165 672.613 C 803.159 669.244 803.34 665.876 803.706 662.527 C 807.121 631.52 826.004 607.795 848.794 607.795 C 873.995 607.795 894.423 636.814 894.423 672.613 Z" fill="#2f2e41" style=""/>
  <path d="M 887.447 706.906 L 887.447 707.054 C 879.378 725.297 865.08 737.42 848.794 737.42 C 823.594 737.42 803.165 708.402 803.165 672.613 C 803.159 669.244 803.34 665.876 803.706 662.527 C 811.458 659.759 819.633 658.359 827.864 658.394 C 860.77 658.394 887.447 680.091 887.447 706.906 Z" opacity="0.1" style=""/>
  <ellipse cx="825.542" cy="708.648" rx="59.582" ry="48.542" style="fill: rgb(172, 88, 252);"/>
  <ellipse cx="820.454" cy="711.698" rx="54.495" ry="45.491" fill="#2f2e41" style=""/>
  <ellipse cx="801.414" cy="694.114" rx="9.761" ry="12.212" opacity="0.1" style=""/>
  <ellipse cx="801.414" cy="694.114" rx="8.138" ry="10.175" style="fill: rgb(172, 88, 252);"/>
  <ellipse cx="829.901" cy="704.288" rx="10.086" ry="10.755" opacity="0.1" style=""/>
  <ellipse cx="829.901" cy="704.288" rx="8.718" ry="9.299" style="fill: rgb(172, 88, 252);"/>
  <ellipse cx="845.596" cy="728.702" rx="10.755" ry="8.738" opacity="0.1" style=""/>
  <ellipse cx="845.596" cy="728.702" rx="9.299" ry="7.557" style="fill: rgb(172, 88, 252);"/>
  <ellipse cx="741.42" cy="756.69" rx="12.851" ry="24.581" transform="matrix(0.656191, -0.754595, 0.754595, 0.656191, -253.08521, 799.819319)" opacity="0.1" style=""/>
  <ellipse cx="741.42" cy="756.69" rx="12.005" ry="22.977" transform="matrix(0.656191, -0.754595, 0.754595, 0.656191, -253.08521, 799.819319)" style="fill: rgb(172, 88, 252);"/>
</svg>