<?xml version="1.0" encoding="utf-8"?>
<svg data-name="Layer 1" width="1071.08" height="838.44" viewBox="0 0 1071.08 838.44" xmlns="http://www.w3.org/2000/svg">
  <title>teddy bear</title>
  <path d="M 1047.171 638.424 C 1042.788 649.576 1037.382 660.299 1031.023 670.454 C 1031.023 670.533 1030.925 670.621 1030.865 670.7 C 1025.251 679.361 1015.602 684.557 1005.281 684.476 L 91.983 684.476 C 25.315 684.476 -16.456 615.654 16.971 560.677 C 77.124 461.783 133.961 324.512 65.188 229.908 C -45.249 77.789 73.7 50.187 152.165 47.028 C 182.356 45.822 212.467 50.905 240.589 61.956 C 276.841 76.204 343.095 97.991 429.413 107.988 C 432.247 108.323 435.101 108.638 437.994 108.972 C 483.684 113.773 529.702 114.632 575.54 111.541 C 576.888 111.472 578.236 111.363 579.614 111.265 C 624.998 107.948 670.012 100.731 714.159 89.695 C 717.022 88.977 719.846 88.298 722.651 87.619 C 869.9 52.43 1005.635 172.333 971.696 307.793 C 959.15 357.919 962.338 411.342 1004.169 454.55 C 1072.608 525.183 1064.312 594.655 1047.171 638.424 Z" fill="#6c63ff" opacity="0.1" style=""/>
  <path d="M 423.481 705.518 L 444.697 740.126 C 444.697 740.126 494.931 762.454 556.334 705.518 C 617.737 648.583 556.334 599.471 556.334 599.471 L 481.548 618.738 L 423.481 705.518 Z" fill="#f86d70" style=""/>
  <path d="M 423.481 705.518 L 444.697 740.126 C 444.697 740.126 494.931 762.454 556.334 705.518 C 617.737 648.583 556.334 599.471 556.334 599.471 L 481.548 618.738 L 423.481 705.518 Z" opacity="0.15" style=""/>
  <path d="M 521.499 796.157 L 492.294 808.486 C 461.622 821.446 430.901 834.425 399.215 844.669 C 390.526 847.483 380.007 849.756 373.09 843.803 C 366.172 837.849 366.88 826.897 370.541 818.622 C 371.899 815.552 373.591 812.59 374.261 809.303 C 375.146 804.973 374.172 800.506 373.523 796.127 C 372.539 789.426 372.361 782.479 374.211 775.964 C 376.061 769.45 380.115 763.369 386.118 760.161 C 390.536 757.78 396.696 757.406 400.052 761.145 C 402.797 764.196 402.758 768.85 404.736 772.451 C 407.363 777.214 413.267 779.409 418.699 779.172 C 424.131 778.936 429.257 776.693 434.246 774.498 C 473.725 757.111 513.371 739.625 549.82 716.539 C 556.127 712.554 562.346 708.382 568.988 704.987 C 575.377 701.707 582.119 699.163 589.082 697.4 C 589.834 697.104 590.671 697.104 591.424 697.4 C 592.182 698.011 592.628 698.927 592.644 699.9 C 594.15 709.494 595.655 719.098 596.531 728.771 C 597.22 736.358 599.808 749.73 596.846 756.933 C 594.415 762.838 581.653 767.758 576.181 770.808 C 567.955 775.325 559.512 779.448 550.981 783.354 C 541.209 787.822 531.359 791.994 521.499 796.157 Z" fill="#fbbebe" style=""/>
  <path d="M 521.499 796.157 L 492.294 808.486 C 461.622 821.446 430.901 834.425 399.215 844.669 C 390.526 847.483 380.007 849.756 373.09 843.803 C 366.172 837.849 366.88 826.897 370.541 818.622 C 371.899 815.552 373.591 812.59 374.261 809.303 C 375.146 804.973 374.172 800.506 373.523 796.127 C 372.539 789.426 372.361 782.479 374.211 775.964 C 376.061 769.45 380.115 763.369 386.118 760.161 C 390.536 757.78 396.696 757.406 400.052 761.145 C 402.797 764.196 402.758 768.85 404.736 772.451 C 407.363 777.214 413.267 779.409 418.699 779.172 C 424.131 778.936 429.257 776.693 434.246 774.498 C 473.725 757.111 513.371 739.625 549.82 716.539 C 556.127 712.554 562.346 708.382 568.988 704.987 C 575.377 701.707 582.119 699.163 589.082 697.4 C 589.834 697.104 590.671 697.104 591.424 697.4 C 592.182 698.011 592.628 698.927 592.644 699.9 C 594.15 709.494 595.655 719.098 596.531 728.771 C 597.22 736.358 599.808 749.73 596.846 756.933 C 594.415 762.838 581.653 767.758 576.181 770.808 C 567.955 775.325 559.512 779.448 550.981 783.354 C 541.209 787.822 531.359 791.994 521.499 796.157 Z" opacity="0.05" style=""/>
  <path d="M 519.768 739.201 C 514.208 744.2 508.146 748.707 503.364 754.444 C 497.568 761.401 493.908 769.864 490.739 778.346 C 487.374 787.353 484.471 796.527 482.04 805.829 C 480.003 813.584 478.222 821.633 473.725 828.265 C 469.228 834.897 461.179 839.877 453.346 838.105 C 446.507 836.6 441.607 830.528 438.468 824.26 C 435.329 817.992 433.312 811.114 429.238 805.406 C 424.682 799.109 417.577 794.188 415.393 786.641 C 413.09 778.71 417.233 769.913 423.688 764.815 C 430.143 759.718 438.448 757.485 446.616 756.225 C 447.513 756.16 448.386 755.902 449.174 755.467 C 450.975 754.306 451.142 751.767 451.073 749.622 C 450.511 719.283 453.586 688.986 460.234 659.378 C 462.202 650.522 464.544 641.665 468.835 633.793 C 476.569 619.486 492.284 608.396 508.392 610.629 C 520.201 612.263 530.316 620.755 536.329 631.087 C 542.341 641.419 544.772 653.424 546.11 665.302 C 547.448 677.179 550.941 696.338 545.195 707.211 C 538.627 719.261 530.024 730.085 519.768 739.201 Z" fill="#fbbebe" style=""/>
  <path d="M 707.105 310.523 C 706.121 318.159 705.354 326.533 709.536 333.008 C 712.084 336.944 716.158 339.66 720.183 342.09 C 726.032 345.615 732.066 348.825 738.259 351.704 C 738.978 351.954 739.6 352.423 740.04 353.043 C 740.361 353.908 740.337 354.863 739.972 355.709 C 732.657 380.597 723.658 404.958 713.039 428.625 C 712.532 430.044 711.692 431.319 710.589 432.345 C 709.369 433.172 707.968 433.692 706.505 433.86 C 677.444 439.234 647.421 433.762 622.125 418.48 C 619.064 416.719 616.231 414.587 613.692 412.133 C 611.357 409.671 609.37 406.899 607.788 403.897 C 595.98 382.445 597.338 356.467 599.001 332.063 C 605.851 332.742 612.766 332.287 619.468 330.715 C 622.785 330.055 625.952 328.794 628.817 326.996 C 634.376 323.237 637.358 316.752 639.798 310.494 C 643.549 300.83 646.643 290.925 649.058 280.845 C 649.924 277.244 690.308 284.486 694.372 285.391 C 698.849 286.375 709.516 287.054 710.972 292.279 C 712.252 296.776 707.765 305.701 707.105 310.523 Z" fill="#fbbebe" style=""/>
  <path d="M 707.105 310.523 C 706.121 318.159 705.354 326.533 709.536 333.008 C 712.084 336.944 716.158 339.66 720.183 342.09 C 726.032 345.615 732.066 348.825 738.259 351.704 C 738.978 351.954 739.6 352.423 740.04 353.043 C 740.361 353.908 740.337 354.863 739.972 355.709 C 732.657 380.597 723.658 404.958 713.039 428.625 C 712.532 430.044 711.692 431.319 710.589 432.345 C 709.369 433.172 707.968 433.692 706.505 433.86 C 677.444 439.234 647.421 433.762 622.125 418.48 C 619.064 416.719 616.231 414.587 613.692 412.133 C 611.357 409.671 609.37 406.899 607.788 403.897 C 595.98 382.445 597.338 356.467 599.001 332.063 C 605.851 332.742 612.766 332.287 619.468 330.715 C 622.785 330.055 625.952 328.794 628.817 326.996 C 634.376 323.237 637.358 316.752 639.798 310.494 C 643.549 300.83 646.643 290.925 649.058 280.845 C 649.924 277.244 690.308 284.486 694.372 285.391 C 698.849 286.375 709.516 287.054 710.972 292.279 C 712.252 296.776 707.765 305.701 707.105 310.523 Z" opacity="0.05" style=""/>
  <path d="M 556.57 517.521 C 582.154 516.282 607.168 524.852 631.129 534.004 C 655.09 543.155 680.123 551.942 705.708 553.684 C 707.509 547.121 709.428 540.528 711.838 534.161 C 714.192 527.768 717.262 521.661 720.99 515.957 C 724.089 511.332 727.76 507.032 730.121 502.003 C 734.776 492.075 733.871 480.591 733.339 469.649 C 732.808 458.707 738.171 423.715 744.439 414.711 C 740.001 407.961 735.475 411.405 731.037 404.664 C 728.675 401.053 719.77 410.362 716.276 407.774 C 712.606 405.038 708.07 403.759 703.602 402.716 C 678.716 396.812 652.571 396.438 628.394 388.103 C 622.017 385.909 615.168 383.183 608.782 385.279 C 606.27 386.242 603.913 387.569 601.786 389.215 L 586.71 399.892 C 585.313 400.876 584.447 400.797 583.758 402.381 C 580.156 410.82 577.886 419.766 577.028 428.901 C 576.044 439.558 576.939 450.313 575.739 460.94 C 574.244 473.072 571.113 484.946 566.43 496.237 C 563.504 503.494 560.214 510.598 556.57 517.521 Z" style="fill: rgb(212, 166, 255);"/>
  <circle cx="686.943" cy="253.401" r="61.403" fill="#fbbebe" style=""/>
  <path d="M 606.155 326.976 C 606.647 345.345 607.69 363.677 609.284 381.973 C 609.609 385.751 610.12 389.845 612.876 392.482 C 606.771 396.512 599.822 399.084 592.565 400 C 588.177 387.975 583.709 375.508 584.536 362.725 C 585.166 352.806 588.767 343.38 589.643 333.5 C 589.899 330.676 589.161 326.759 592.103 325.234 C 593.225 324.654 606.155 326.848 606.155 326.976 Z" fill="#f86d70" style=""/>
  <path d="M 571.005 508.38 C 566.784 508.764 563.133 511.332 559.679 513.782 C 518.636 543.618 482.227 580.135 453.848 622.231 C 446.783 632.711 440.21 643.535 432.692 653.72 C 412.736 680.731 386.63 702.527 359.973 722.936 C 366.93 722.621 374.733 722.818 381.7 722.503 C 385.537 722.326 389.444 722.158 393.183 723.054 C 396.923 723.949 400.554 726.094 402.354 729.489 C 404.017 732.618 404.46 737.017 407.776 738.267 C 409.276 738.666 410.851 738.686 412.362 738.326 C 423.561 736.795 434.964 738.616 445.13 743.561 C 445.504 735.131 446.763 726.763 448.889 718.596 C 450.069 713.892 451.605 709.287 453.179 704.692 C 456.712 694.409 460.48 684.116 466.247 674.886 C 472.766 664.474 481.633 655.732 492.136 649.36 C 495.069 647.417 498.361 646.079 501.819 645.424 C 510.488 644.155 518.852 650.423 522.857 658.217 C 526.862 666.01 527.472 675.043 528.004 683.801 C 528.659 694.527 529.316 705.257 529.972 715.988 C 530.208 719.875 530.513 723.979 532.698 727.206 C 534.41 723.9 538.523 723.27 541.721 721.361 C 547.832 717.73 554.69 713.961 561.657 715.388 C 569.421 716.963 574.45 724.412 577.903 731.536 C 583.954 744.028 587.869 757.445 589.485 771.231 C 604 763.458 613.436 748.668 616.88 732.559 C 618.849 723.457 618.504 713.991 620.206 704.839 C 622.449 692.853 628.048 681.748 636.354 672.819 C 654.687 653.188 683.853 646.467 701.89 626.571 C 704.261 623.943 706.485 620.942 706.918 617.429 C 707.43 613.227 705.265 609.144 705.167 604.912 C 705.009 597.749 710.539 591.943 715.007 586.364 C 719.319 581.026 722.954 575.176 725.831 568.946 C 727.347 565.65 728.675 562.058 728.36 558.476 C 728.045 554.895 725.684 551.175 722.121 550.447 C 715.607 549.118 709.132 557.679 703.277 554.511 C 701.792 553.563 700.583 552.239 699.774 550.673 C 696.049 544.602 693.44 537.913 692.069 530.924 C 677.309 525.541 661.771 523.632 646.559 519.775 C 640.084 518.132 633.766 515.947 627.35 514.068 C 609.215 508.744 589.909 508.665 571.005 508.38 Z" style="fill: rgb(212, 166, 255);"/>
  <path d="M 556.57 517.521 C 582.154 516.282 607.168 524.852 631.129 534.004 C 655.09 543.155 680.123 551.942 705.708 553.684 C 707.509 547.121 709.428 540.528 711.838 534.161 C 709.546 532.853 706.761 531.928 704.773 530.973 C 692.62 525.088 680.134 519.917 667.38 515.485 C 641.675 506.56 615.025 500.634 587.96 497.821 C 580.836 497.074 573.672 496.562 566.509 496.267 C 563.556 503.515 560.239 510.61 556.57 517.521 Z" fill="#f86d70" style=""/>
  <path d="M 556.57 517.521 C 582.154 516.282 607.168 524.852 631.129 534.004 C 655.09 543.155 680.123 551.942 705.708 553.684 C 707.509 547.121 709.428 540.528 711.838 534.161 C 709.546 532.853 706.761 531.928 704.773 530.973 C 692.62 525.088 680.134 519.917 667.38 515.485 C 641.675 506.56 615.025 500.634 587.96 497.821 C 580.836 497.074 573.672 496.562 566.509 496.267 C 563.556 503.515 560.239 510.61 556.57 517.521 Z" opacity="0.15" style=""/>
  <path d="M 736.34 354.036 C 762.053 352.996 783.783 372.907 784.99 398.613 C 785.122 404.646 784.568 410.674 783.337 416.581 C 777.512 448.315 765.625 480.493 772.7 511.972 C 774.776 521.261 778.476 530.235 779.165 539.721 C 779.378 544.317 779.236 548.923 778.742 553.497 L 774.963 598.89 C 780.277 604.794 787.411 610.128 793.227 615.618 C 799.042 621.109 804.336 627.535 806.206 635.299 C 807.047 639.398 807.305 643.595 806.973 647.766 C 806.875 649.892 806.639 652.234 805.094 653.67 C 803.549 655.107 800.321 654.753 800.016 652.686 C 798.954 655.461 794.555 655.225 792.597 652.991 C 790.639 650.758 790.314 647.579 789.733 644.657 C 788.771 639.782 786.866 635.142 784.124 630.999 C 782.875 632.849 783.14 635.279 782.894 637.493 C 782.648 639.707 781.33 642.276 779.096 642.266 C 776.4 642.266 775.377 638.792 775.012 636.116 C 774.511 632.347 773.714 628.509 771.706 625.291 C 769.699 622.074 766.255 619.495 762.447 619.456 C 763.608 619.811 764.485 620.768 764.739 621.955 C 760.857 623.387 756.679 623.82 752.587 623.215 C 750.241 622.935 747.992 622.109 746.023 620.804 C 742.737 618.472 740.985 614.467 740.365 610.482 C 739.745 606.497 740.07 602.442 740.119 598.408 C 740.316 581.581 735.356 565.178 730.446 549.079 C 726.668 536.7 723.292 524.479 724.444 511.608 C 724.995 505.457 726.51 499.445 727.396 493.334 C 730.574 471.194 725.428 447.656 733.713 426.864 C 734.579 424.669 735.622 422.396 735.347 420.054 C 734.933 417.995 733.979 416.082 732.582 414.514 C 728.528 409.228 723.751 404.537 718.392 400.581 C 719.451 399.12 720.238 397.48 720.714 395.739 C 724.444 381.5 727.179 365.579 736.34 354.036 Z" fill="#fbbebe" style=""/>
  <path d="M 742.599 363.552 C 740.606 371.616 739.095 379.791 738.072 388.034 C 736.301 405.009 739.962 403.828 735.494 420.29 C 724.601 414.563 712.37 427.474 701.477 421.747 C 700.493 421.206 699.312 420.517 699.115 419.375 C 699.092 418.337 699.482 417.334 700.197 416.581 C 706.904 407.428 712.278 397.37 716.158 386.706 C 719.219 378.273 721.344 369.486 725.251 361.417 C 727.553 356.644 730.633 352.009 735.199 349.323 C 737.728 347.837 747.991 345.052 748.975 349.972 C 749.241 351.399 746.023 354.174 745.285 355.512 C 744.02 358.054 743.115 360.76 742.599 363.552 Z" style="fill: rgb(212, 166, 255);"/>
  <circle cx="717.123" cy="401.427" r="42.431" style="fill: rgb(172, 88, 252);"/>
  <circle cx="842.693" cy="401.427" r="42.431" style="fill: rgb(172, 88, 252);"/>
  <ellipse cx="832.371" cy="407.095" rx="32.118" ry="36.763" opacity="0.1" style=""/>
  <ellipse cx="727.445" cy="407.095" rx="32.118" ry="36.763" opacity="0.1" style=""/>
  <path d="M 931.019 574.349 C 929.799 587.554 919.211 600.445 905.946 600.524 C 900.042 600.524 894.463 598.211 889.218 595.525 C 884.672 593.193 880.184 590.496 876.888 586.59 C 876.406 586.019 875.963 585.439 875.54 584.838 C 870.285 577.379 869.183 567.48 864.607 559.451 C 856.391 545.015 838.836 539.17 822.678 535.322 C 805.64 531.259 788.399 528.099 771.027 525.856 C 759.219 524.321 747.224 523.219 735.396 524.675 C 710.225 527.775 687.494 542.22 662.431 545.527 C 661.584 545.635 660.738 545.733 659.882 545.822 C 652.01 546.609 644.03 546.215 636.138 546.944 C 623.001 548.154 610.071 552.484 596.905 551.588 C 583.739 550.693 569.52 542.112 568.585 528.956 C 567.925 519.686 574.223 511.017 582.194 506.245 C 590.164 501.472 599.581 499.848 608.762 498.52 C 633.136 494.987 658.16 492.744 680.596 482.668 C 688.625 479.066 696.242 474.49 704.537 471.558 C 708.227 470.231 712.062 469.35 715.961 468.931 C 720.841 468.371 725.784 469.002 730.367 470.771 L 718.559 475.258 L 833.857 467.12 L 838.403 466.805 C 843.864 466.421 849.424 466.038 854.767 467.248 C 863.958 469.334 871.496 475.927 877.311 483.366 C 883.127 490.805 887.466 499.258 892.918 506.983 C 900.583 517.807 910.295 527.017 918.158 537.684 C 926.02 548.351 932.229 561.153 931.019 574.349 Z" style="fill: rgb(172, 88, 252);"/>
  <path d="M 877.282 557.364 C 877.336 566.55 876.767 575.729 875.579 584.838 C 870.325 577.379 869.223 567.48 864.647 559.451 C 856.43 545.015 838.875 539.17 822.718 535.322 C 805.679 531.259 788.438 528.099 771.067 525.856 C 759.258 524.321 747.263 523.219 735.435 524.675 C 710.264 527.775 687.533 542.22 662.47 545.527 C 667.922 506.599 687.612 481.664 716.05 468.921 C 731.489 462.033 749.507 458.687 769.276 458.687 C 793.542 458.687 815.928 459.671 833.965 467.11 C 860.258 477.934 877.282 502.417 877.282 557.364 Z" opacity="0.1" style=""/>
  <path d="M 871.751 561.291 C 871.751 582.083 869.262 598.339 864.716 611.033 C 853.557 642.157 830.088 651.909 800.882 654.841 C 791.042 655.825 780.602 656.042 769.738 656.042 C 756.045 656.143 742.411 654.247 729.265 650.413 C 704.911 643.082 684.925 628.411 674.761 605.522 C 669.28 593.202 666.652 578.511 667.715 561.291 C 671.789 495.598 713.393 466.51 769.738 466.51 C 826.083 466.51 871.751 472.345 871.751 561.291 Z" fill="#2f2e41" style=""/>
  <circle cx="779.913" cy="446.19" r="79.637" opacity="0.1" style=""/>
  <circle cx="779.913" cy="441.535" r="79.637" fill="#2f2e41" style=""/>
  <circle cx="769.738" cy="415.675" r="4.074" fill="#fbbebe" style=""/>
  <circle cx="789.497" cy="415.675" r="4.074" fill="#fbbebe" style=""/>
  <ellipse cx="779.913" cy="451.13" rx="41.565" ry="26.785" opacity="0.1" style=""/>
  <ellipse cx="779.913" cy="451.13" rx="39.243" ry="25.289" style="fill: rgb(172, 88, 252);"/>
  <path d="M 729.265 650.413 C 704.911 643.082 684.925 628.411 674.761 605.522 C 678.197 604.332 681.809 603.723 685.447 603.722 C 706.22 603.722 723.745 623.432 729.265 650.413 Z" opacity="0.1" style=""/>
  <path d="M 728.754 672.613 C 728.754 708.402 708.325 737.42 683.125 737.42 C 666.052 737.42 651.174 724.116 643.351 704.397 C 639.401 694.268 637.397 683.484 637.446 672.613 C 637.446 636.814 657.885 607.795 683.085 607.795 C 705.826 607.795 724.69 631.412 728.144 662.369 C 728.542 665.769 728.746 669.189 728.754 672.613 Z" fill="#2f2e41" style=""/>
  <path d="M 728.754 672.613 C 728.754 708.402 708.325 737.42 683.125 737.42 C 666.052 737.42 651.174 724.116 643.351 704.397 C 644.59 678.487 670.765 657.784 702.884 657.784 C 711.54 657.735 720.132 659.276 728.232 662.33 C 728.603 665.744 728.777 669.179 728.754 672.613 Z" opacity="0.1" style=""/>
  <ellipse cx="706.377" cy="708.648" rx="59.582" ry="48.542" style="fill: rgb(172, 88, 252);"/>
  <ellipse cx="710.874" cy="711.698" rx="55.076" ry="45.491" fill="#2f2e41" style=""/>
  <ellipse cx="730.495" cy="694.114" rx="9.594" ry="11.985" opacity="0.1" style=""/>
  <ellipse cx="730.495" cy="694.114" rx="8.138" ry="10.175" style="fill: rgb(172, 88, 252);"/>
  <ellipse cx="702.018" cy="704.288" rx="10.086" ry="10.755" opacity="0.1" style=""/>
  <ellipse cx="702.018" cy="704.288" rx="8.718" ry="9.299" style="fill: rgb(172, 88, 252);"/>
  <ellipse cx="686.323" cy="728.702" rx="10.755" ry="8.738" opacity="0.1" style=""/>
  <ellipse cx="686.323" cy="728.702" rx="9.299" ry="7.557" style="fill: rgb(172, 88, 252);"/>
  <ellipse cx="663.25" cy="756.69" rx="24.581" ry="12.851" transform="matrix(0.754595, -0.656191, 0.656191, 0.754595, -269.516088, 600.971533)" opacity="0.1" style=""/>
  <ellipse cx="663.25" cy="756.69" rx="22.977" ry="12.005" transform="matrix(0.754595, -0.656191, 0.656191, 0.754595, -269.516088, 600.971533)" style="fill: rgb(172, 88, 252);"/>
  <path d="M 864.716 611.033 C 853.557 642.157 830.088 651.909 800.882 654.841 C 805.606 626.206 823.702 604.883 845.301 604.883 C 852.242 604.941 859.006 607.083 864.716 611.033 Z" opacity="0.1" style=""/>
  <path d="M 894.423 672.613 C 894.507 684.453 892.131 696.18 887.447 707.054 C 879.378 725.297 865.08 737.42 848.794 737.42 C 823.594 737.42 803.165 708.402 803.165 672.613 C 803.159 669.244 803.34 665.876 803.706 662.527 C 807.121 631.52 826.004 607.795 848.794 607.795 C 873.995 607.795 894.423 636.814 894.423 672.613 Z" fill="#2f2e41" style=""/>
  <path d="M 887.447 706.906 L 887.447 707.054 C 879.378 725.297 865.08 737.42 848.794 737.42 C 823.594 737.42 803.165 708.402 803.165 672.613 C 803.159 669.244 803.34 665.876 803.706 662.527 C 811.458 659.759 819.633 658.359 827.864 658.394 C 860.77 658.394 887.447 680.091 887.447 706.906 Z" opacity="0.1" style=""/>
  <ellipse cx="825.542" cy="708.648" rx="59.582" ry="48.542" style="fill: rgb(172, 88, 252);"/>
  <ellipse cx="820.454" cy="711.698" rx="54.495" ry="45.491" fill="#2f2e41" style=""/>
  <ellipse cx="801.414" cy="694.114" rx="9.761" ry="12.212" opacity="0.1" style=""/>
  <ellipse cx="801.414" cy="694.114" rx="8.138" ry="10.175" style="fill: rgb(172, 88, 252);"/>
  <ellipse cx="829.901" cy="704.288" rx="10.086" ry="10.755" opacity="0.1" style=""/>
  <ellipse cx="829.901" cy="704.288" rx="8.718" ry="9.299" style="fill: rgb(172, 88, 252);"/>
  <ellipse cx="845.596" cy="728.702" rx="10.755" ry="8.738" opacity="0.1" style=""/>
  <ellipse cx="845.596" cy="728.702" rx="9.299" ry="7.557" style="fill: rgb(172, 88, 252);"/>
  <ellipse cx="741.42" cy="756.69" rx="12.851" ry="24.581" transform="matrix(0.656191, -0.754595, 0.754595, 0.656191, -253.08521, 799.819319)" opacity="0.1" style=""/>
  <ellipse cx="741.42" cy="756.69" rx="12.005" ry="22.977" transform="matrix(0.656191, -0.754595, 0.754595, 0.656191, -253.08521, 799.819319)" style="fill: rgb(172, 88, 252);"/>
  <path d="M 594.888 328.983 C 585.021 325.657 574.344 325.598 564.442 328.816 C 559.611 330.4 554.838 332.919 551.965 337.131 C 549.662 340.506 548.796 344.639 548.029 348.644 C 545.588 360.767 543.22 372.904 540.924 385.053 C 538.267 399.075 540.501 413.442 543.571 427.366 C 546.641 441.289 549.101 455.607 550.853 469.885 C 551.677 475.315 551.934 480.816 551.62 486.299 C 551.089 492.478 549.229 498.658 550.223 504.778 C 552.053 516.026 562.631 523.396 572.295 529.438 C 575.867 540.006 587.055 545.674 596.895 550.88 C 617.521 561.771 637.239 574.301 655.858 588.351 C 662.441 593.271 668.945 598.516 676.414 602.009 C 683.4 605.286 690.997 606.93 698.534 608.622 L 722.151 613.798 C 729.177 612.814 736.911 610.846 743.298 607.736 C 747.017 605.896 751.12 602.541 750.186 598.506 C 749.526 595.79 746.82 594.177 744.36 592.868 C 736.488 588.705 728.616 584.504 720.006 582.418 C 715.243 581.256 710.343 580.764 705.511 579.879 C 700.29 578.968 695.189 577.466 690.308 575.402 C 678.116 570.117 668.197 560.789 658.554 551.637 C 649.432 542.998 641.383 533.807 632.635 524.793 C 628.586 520.878 624.326 517.189 619.872 513.743 C 610.12 505.701 600.836 497.11 592.064 488.011 C 587.143 482.874 590.214 474.057 590.656 466.933 C 591.306 456.601 588.964 446.347 586.996 436.182 C 586.012 431.105 585.126 425.949 585.451 420.792 C 585.943 412.92 589.2 405.56 591.611 398.071 C 596.88 381.635 598.175 364.183 595.389 347.148 C 594.405 341.057 593.303 334.946 594.888 328.983 Z" fill="#fbbebe" style=""/>
  <path d="M 739.834 251.246 C 756.877 248.058 765.153 226.498 760.223 209.868 C 755.293 193.238 741.428 180.997 727.632 170.507 C 705.108 153.346 679.71 137.847 651.479 135.771 C 623.247 133.695 592.064 149.232 584.565 176.519 C 579.704 194.182 585.166 213.558 579.724 231.054 C 571.852 256.323 543.817 270.483 533.593 294.897 C 521.46 323.906 537.844 356.123 542.252 387.257 C 550.184 443.346 512.643 502.456 458.473 519.116 C 478.488 521.881 498.818 524.272 518.843 521.713 C 538.867 519.155 558.902 511.135 572.295 496.011 C 578.641 488.837 583.709 479.961 592.28 475.681 C 597.397 473.132 603.212 472.512 608.792 471.292 C 641.117 464.247 666.711 433.604 667.902 400.551 C 668.768 376.551 658.199 353.574 656.251 329.633 C 654.106 303.192 663.375 277.135 679.966 256.697 C 701.969 229.607 712.586 256.343 739.834 251.246 Z" style="fill: rgb(39, 55, 77);"/>
  <path d="M 760.223 210.989 C 755.303 194.36 741.428 182.109 727.632 171.629 C 720.099 165.833 712.265 160.439 704.163 155.471 C 706.426 157.114 708.67 158.787 710.884 160.47 C 724.66 170.969 738.555 183.23 743.484 199.831 C 748.414 216.431 740.139 238.021 723.086 241.209 C 695.848 246.306 685.221 219.56 663.218 246.65 C 646.627 267.088 637.358 293.145 639.513 319.586 C 641.481 343.527 652.02 366.504 651.154 390.504 C 649.963 423.557 624.369 454.2 592.054 461.245 C 586.464 462.466 580.649 463.086 575.532 465.634 C 566.961 469.915 561.893 478.79 555.547 485.964 C 542.154 501.088 522.139 509.108 502.104 511.667 C 493.759 512.693 485.343 513.022 476.943 512.651 C 471.032 515.749 464.849 518.299 458.473 520.267 C 478.488 523.032 498.818 525.433 518.843 522.875 C 538.867 520.316 558.902 512.296 572.295 497.162 C 578.641 489.989 583.709 481.123 592.28 476.842 C 597.397 474.284 603.212 473.674 608.792 472.453 C 641.117 465.398 666.711 434.765 667.902 401.702 C 668.768 377.702 658.199 354.725 656.251 330.794 C 654.106 304.353 663.375 278.287 679.966 257.858 C 701.969 230.768 712.586 257.504 739.834 252.417 C 756.877 249.179 765.153 227.619 760.223 210.989 Z" opacity="0.15" style=""/>
</svg>